<?xml version="1.0" encoding="UTF-8" standalone="no"?><!DOCTYPE svg PUBLIC "-//W3C//DTD SVG 1.1//EN" "http://www.w3.org/Graphics/SVG/1.1/DTD/svg11.dtd"><!-- Generated by graphviz version 2.40.1 (20161225.0304)
 --><!-- Title: %0 Pages: 1 --><svg xmlns="http://www.w3.org/2000/svg" xmlns:xlink="http://www.w3.org/1999/xlink" width="381pt" height="764pt" viewBox="0.00 0.00 381.00 764.00">
<g id="graph0" class="graph" transform="scale(1 1) rotate(0) translate(4 760)">
<title>%0</title>
<polygon fill="#ffffff" stroke="transparent" points="-4,4 -4,-760 377,-760 377,4 -4,4"/>
<!-- A -->
<g id="node1" class="node">
<title>A</title>
<ellipse fill="none" stroke="#000000" cx="82" cy="-738" rx="27" ry="18"/>
<text text-anchor="middle" x="82" y="-733.8" font-family="Times,serif" font-size="14.00" fill="#000000">A</text>
</g>
<!-- B -->
<g id="node2" class="node">
<title>B</title>
<ellipse fill="none" stroke="#000000" cx="82" cy="-666" rx="27" ry="18"/>
<text text-anchor="middle" x="82" y="-661.8" font-family="Times,serif" font-size="14.00" fill="#000000">B</text>
</g>
<!-- A&#45;&gt;B -->
<g id="edge1" class="edge">
<title>A-&gt;B</title>
<path fill="none" stroke="#000000" d="M82,-719.8314C82,-712.131 82,-702.9743 82,-694.4166"/>
<polygon fill="#000000" stroke="#000000" points="85.5001,-694.4132 82,-684.4133 78.5001,-694.4133 85.5001,-694.4132"/>
</g>
<!-- D -->
<g id="node3" class="node">
<title>D</title>
<ellipse fill="none" stroke="#000000" cx="264" cy="-522" rx="27" ry="18"/>
<text text-anchor="middle" x="264" y="-517.8" font-family="Times,serif" font-size="14.00" fill="#000000">D</text>
</g>
<!-- A&#45;&gt;D -->
<g id="edge2" class="edge">
<title>A-&gt;D</title>
<path fill="none" stroke="#000000" d="M100.0038,-724.4951C127.7502,-703.0116 181.4676,-658.6857 217,-612 231.841,-592.5006 244.4232,-567.6394 252.8235,-548.9896"/>
<polygon fill="#000000" stroke="#000000" points="256.1286,-550.1673 256.9362,-539.6033 249.7171,-547.358 256.1286,-550.1673"/>
</g>
<!-- K -->
<g id="node12" class="node">
<title>K</title>
<ellipse fill="none" stroke="#000000" cx="27" cy="-234" rx="27" ry="18"/>
<text text-anchor="middle" x="27" y="-229.8" font-family="Times,serif" font-size="14.00" fill="#000000">K</text>
</g>
<!-- A&#45;&gt;K -->
<g id="edge13" class="edge">
<title>A-&gt;K</title>
<path fill="none" stroke="#000000" d="M68.9011,-721.9153C61.1559,-711.6387 51.7648,-697.7102 46,-684 30.1542,-646.3142 27,-634.8816 27,-594 27,-594 27,-594 27,-378 27,-337.876 27,-291.4631 27,-262.4177"/>
<polygon fill="#000000" stroke="#000000" points="30.5001,-262.1853 27,-252.1854 23.5001,-262.1854 30.5001,-262.1853"/>
</g>
<!-- E -->
<g id="node4" class="node">
<title>E</title>
<ellipse fill="none" stroke="#000000" cx="181" cy="-594" rx="27" ry="18"/>
<text text-anchor="middle" x="181" y="-589.8" font-family="Times,serif" font-size="14.00" fill="#000000">E</text>
</g>
<!-- B&#45;&gt;E -->
<g id="edge3" class="edge">
<title>B-&gt;E</title>
<path fill="none" stroke="#000000" d="M100.6211,-652.4574C115.6935,-641.4956 137.1254,-625.9088 154.0687,-613.5864"/>
<polygon fill="#000000" stroke="#000000" points="156.4336,-616.1943 162.4624,-607.4819 152.3164,-610.5331 156.4336,-616.1943"/>
</g>
<!-- C -->
<g id="node5" class="node">
<title>C</title>
<ellipse fill="none" stroke="#000000" cx="82" cy="-378" rx="27" ry="18"/>
<text text-anchor="middle" x="82" y="-373.8" font-family="Times,serif" font-size="14.00" fill="#000000">C</text>
</g>
<!-- B&#45;&gt;C -->
<g id="edge4" class="edge">
<title>B-&gt;C</title>
<path fill="none" stroke="#000000" d="M82,-647.9843C82,-599.2939 82,-464.7961 82,-406.0573"/>
<polygon fill="#000000" stroke="#000000" points="85.5001,-406.0088 82,-396.0089 78.5001,-406.0089 85.5001,-406.0088"/>
</g>
<!-- F -->
<g id="node6" class="node">
<title>F</title>
<ellipse fill="none" stroke="#000000" cx="310" cy="-450" rx="27" ry="18"/>
<text text-anchor="middle" x="310" y="-445.8" font-family="Times,serif" font-size="14.00" fill="#000000">F</text>
</g>
<!-- D&#45;&gt;F -->
<g id="edge5" class="edge">
<title>D-&gt;F</title>
<path fill="none" stroke="#000000" d="M274.6689,-505.3008C280.3586,-496.3952 287.4777,-485.2524 293.8316,-475.307"/>
<polygon fill="#000000" stroke="#000000" points="296.9544,-476.92 299.3889,-466.6087 291.0555,-473.1513 296.9544,-476.92"/>
</g>
<!-- G -->
<g id="node7" class="node">
<title>G</title>
<ellipse fill="none" stroke="#000000" cx="264" cy="-378" rx="27" ry="18"/>
<text text-anchor="middle" x="264" y="-373.8" font-family="Times,serif" font-size="14.00" fill="#000000">G</text>
</g>
<!-- D&#45;&gt;G -->
<g id="edge6" class="edge">
<title>D-&gt;G</title>
<path fill="none" stroke="#000000" d="M264,-503.7623C264,-479.201 264,-435.2474 264,-406.3541"/>
<polygon fill="#000000" stroke="#000000" points="267.5001,-406.0896 264,-396.0896 260.5001,-406.0897 267.5001,-406.0896"/>
</g>
<!-- E&#45;&gt;D -->
<g id="edge8" class="edge">
<title>E-&gt;D</title>
<path fill="none" stroke="#000000" d="M197.7963,-579.4297C209.7998,-569.017 226.1387,-554.8435 239.5811,-543.1827"/>
<polygon fill="#000000" stroke="#000000" points="242.2515,-545.4996 247.5119,-536.3029 237.6646,-540.2118 242.2515,-545.4996"/>
</g>
<!-- E&#45;&gt;G -->
<g id="edge7" class="edge">
<title>E-&gt;G</title>
<path fill="none" stroke="#000000" d="M187.7922,-576.3238C202.2979,-538.5741 236.3819,-449.8736 253.6232,-405.0047"/>
<polygon fill="#000000" stroke="#000000" points="256.9105,-406.2075 257.2303,-395.6175 250.3763,-403.6966 256.9105,-406.2075"/>
</g>
<!-- H -->
<g id="node8" class="node">
<title>H</title>
<ellipse fill="none" stroke="#000000" cx="154" cy="-522" rx="27" ry="18"/>
<text text-anchor="middle" x="154" y="-517.8" font-family="Times,serif" font-size="14.00" fill="#000000">H</text>
</g>
<!-- E&#45;&gt;H -->
<g id="edge9" class="edge">
<title>E-&gt;H</title>
<path fill="none" stroke="#000000" d="M174.3258,-576.2022C171.2524,-568.0064 167.5384,-558.1024 164.1305,-549.0145"/>
<polygon fill="#000000" stroke="#000000" points="167.3858,-547.7274 160.5974,-539.593 160.8315,-550.1853 167.3858,-547.7274"/>
</g>
<!-- I -->
<g id="node10" class="node">
<title>I</title>
<ellipse fill="none" stroke="#000000" cx="137" cy="-306" rx="27" ry="18"/>
<text text-anchor="middle" x="137" y="-301.8" font-family="Times,serif" font-size="14.00" fill="#000000">I</text>
</g>
<!-- C&#45;&gt;I -->
<g id="edge11" class="edge">
<title>C-&gt;I</title>
<path fill="none" stroke="#000000" d="M94.4804,-361.6621C101.5124,-352.4564 110.4347,-340.7764 118.2883,-330.4953"/>
<polygon fill="#000000" stroke="#000000" points="121.28,-332.3446 124.569,-322.2733 115.7172,-328.0953 121.28,-332.3446"/>
</g>
<!-- J -->
<g id="node11" class="node">
<title>J</title>
<ellipse fill="none" stroke="#000000" cx="73" cy="-90" rx="27" ry="18"/>
<text text-anchor="middle" x="73" y="-85.8" font-family="Times,serif" font-size="14.00" fill="#000000">J</text>
</g>
<!-- C&#45;&gt;J -->
<g id="edge12" class="edge">
<title>C-&gt;J</title>
<path fill="none" stroke="#000000" d="M81.437,-359.9843C79.9154,-311.2939 75.7124,-176.7961 73.8768,-118.0573"/>
<polygon fill="#000000" stroke="#000000" points="77.3735,-117.8946 73.5628,-108.0089 70.3769,-118.1134 77.3735,-117.8946"/>
</g>
<!-- F&#45;&gt;G -->
<g id="edge24" class="edge">
<title>F-&gt;G</title>
<path fill="none" stroke="#000000" d="M299.3311,-433.3008C293.6414,-424.3952 286.5223,-413.2524 280.1684,-403.307"/>
<polygon fill="#000000" stroke="#000000" points="282.9445,-401.1513 274.6111,-394.6087 277.0456,-404.92 282.9445,-401.1513"/>
</g>
<!-- R -->
<g id="node18" class="node">
<title>R</title>
<ellipse fill="none" stroke="#000000" cx="276" cy="-162" rx="27" ry="18"/>
<text text-anchor="middle" x="276" y="-157.8" font-family="Times,serif" font-size="14.00" fill="#000000">R</text>
</g>
<!-- G&#45;&gt;R -->
<g id="edge27" class="edge">
<title>G-&gt;R</title>
<path fill="none" stroke="#000000" d="M265.0025,-359.9555C267.0892,-322.3938 271.9137,-235.5541 274.4216,-190.4103"/>
<polygon fill="#000000" stroke="#000000" points="277.9318,-190.3238 274.9919,-180.1451 270.9425,-189.9355 277.9318,-190.3238"/>
</g>
<!-- W -->
<g id="node23" class="node">
<title>W</title>
<ellipse fill="none" stroke="#000000" cx="319" cy="-306" rx="27" ry="18"/>
<text text-anchor="middle" x="319" y="-301.8" font-family="Times,serif" font-size="14.00" fill="#000000">W</text>
</g>
<!-- G&#45;&gt;W -->
<g id="edge34" class="edge">
<title>G-&gt;W</title>
<path fill="none" stroke="#000000" d="M276.4804,-361.6621C283.5124,-352.4564 292.4347,-340.7764 300.2883,-330.4953"/>
<polygon fill="#000000" stroke="#000000" points="303.28,-332.3446 306.569,-322.2733 297.7172,-328.0953 303.28,-332.3446"/>
</g>
<!-- M -->
<g id="node9" class="node">
<title>M</title>
<ellipse fill="none" stroke="#000000" cx="154" cy="-450" rx="27" ry="18"/>
<text text-anchor="middle" x="154" y="-445.8" font-family="Times,serif" font-size="14.00" fill="#000000">M</text>
</g>
<!-- H&#45;&gt;M -->
<g id="edge10" class="edge">
<title>H-&gt;M</title>
<path fill="none" stroke="#000000" d="M154,-503.8314C154,-496.131 154,-486.9743 154,-478.4166"/>
<polygon fill="#000000" stroke="#000000" points="157.5001,-478.4132 154,-468.4133 150.5001,-478.4133 157.5001,-478.4132"/>
</g>
<!-- M&#45;&gt;G -->
<g id="edge17" class="edge">
<title>M-&gt;G</title>
<path fill="none" stroke="#000000" d="M173.4126,-437.2936C190.742,-425.9507 216.3318,-409.201 235.8972,-396.3946"/>
<polygon fill="#000000" stroke="#000000" points="237.9613,-399.2267 244.4115,-390.8216 234.1276,-393.3698 237.9613,-399.2267"/>
</g>
<!-- P -->
<g id="node16" class="node">
<title>P</title>
<ellipse fill="none" stroke="#000000" cx="192" cy="-378" rx="27" ry="18"/>
<text text-anchor="middle" x="192" y="-373.8" font-family="Times,serif" font-size="14.00" fill="#000000">P</text>
</g>
<!-- M&#45;&gt;P -->
<g id="edge20" class="edge">
<title>M-&gt;P</title>
<path fill="none" stroke="#000000" d="M163.0055,-432.937C167.4828,-424.4537 172.9952,-414.0092 178.007,-404.513"/>
<polygon fill="#000000" stroke="#000000" points="181.2229,-405.9182 182.7952,-395.4407 175.0322,-402.6509 181.2229,-405.9182"/>
</g>
<!-- I&#45;&gt;M -->
<g id="edge16" class="edge">
<title>I-&gt;M</title>
<path fill="none" stroke="#000000" d="M139.1454,-324.1727C142.0482,-348.7613 147.2555,-392.8705 150.6693,-421.7871"/>
<polygon fill="#000000" stroke="#000000" points="147.2329,-422.5328 151.8813,-432.0535 154.1847,-421.712 147.2329,-422.5328"/>
</g>
<!-- N -->
<g id="node14" class="node">
<title>N</title>
<ellipse fill="none" stroke="#000000" cx="79" cy="-18" rx="27" ry="18"/>
<text text-anchor="middle" x="79" y="-13.8" font-family="Times,serif" font-size="14.00" fill="#000000">N</text>
</g>
<!-- J&#45;&gt;N -->
<g id="edge18" class="edge">
<title>J-&gt;N</title>
<path fill="none" stroke="#000000" d="M74.5141,-71.8314C75.1558,-64.131 75.9188,-54.9743 76.6319,-46.4166"/>
<polygon fill="#000000" stroke="#000000" points="80.1229,-46.6694 77.4656,-36.4133 73.1471,-46.088 80.1229,-46.6694"/>
</g>
<!-- Q -->
<g id="node17" class="node">
<title>Q</title>
<ellipse fill="none" stroke="#000000" cx="161" cy="-18" rx="27" ry="18"/>
<text text-anchor="middle" x="161" y="-13.8" font-family="Times,serif" font-size="14.00" fill="#000000">Q</text>
</g>
<!-- J&#45;&gt;Q -->
<g id="edge26" class="edge">
<title>J-&gt;Q</title>
<path fill="none" stroke="#000000" d="M90.386,-75.7751C103.2825,-65.2234 121.0651,-50.674 135.5585,-38.8157"/>
<polygon fill="#000000" stroke="#000000" points="138.1269,-41.2366 143.6501,-32.1953 133.6942,-35.8189 138.1269,-41.2366"/>
</g>
<!-- L -->
<g id="node13" class="node">
<title>L</title>
<ellipse fill="none" stroke="#000000" cx="27" cy="-162" rx="27" ry="18"/>
<text text-anchor="middle" x="27" y="-157.8" font-family="Times,serif" font-size="14.00" fill="#000000">L</text>
</g>
<!-- K&#45;&gt;L -->
<g id="edge14" class="edge">
<title>K-&gt;L</title>
<path fill="none" stroke="#000000" d="M27,-215.8314C27,-208.131 27,-198.9743 27,-190.4166"/>
<polygon fill="#000000" stroke="#000000" points="30.5001,-190.4132 27,-180.4133 23.5001,-190.4133 30.5001,-190.4132"/>
</g>
<!-- L&#45;&gt;J -->
<g id="edge15" class="edge">
<title>L-&gt;J</title>
<path fill="none" stroke="#000000" d="M37.6689,-145.3008C43.3586,-136.3952 50.4777,-125.2524 56.8316,-115.307"/>
<polygon fill="#000000" stroke="#000000" points="59.9544,-116.92 62.3889,-106.6087 54.0555,-113.1513 59.9544,-116.92"/>
</g>
<!-- O -->
<g id="node15" class="node">
<title>O</title>
<ellipse fill="none" stroke="#000000" cx="209" cy="-306" rx="27" ry="18"/>
<text text-anchor="middle" x="209" y="-301.8" font-family="Times,serif" font-size="14.00" fill="#000000">O</text>
</g>
<!-- N&#45;&gt;O -->
<g id="edge19" class="edge">
<title>N-&gt;O</title>
<path fill="none" stroke="#000000" d="M88.9139,-34.7865C94.9912,-45.3271 102.7727,-59.2868 109,-72 144.9692,-145.4319 181.1984,-234.9961 198.5106,-278.983"/>
<polygon fill="#000000" stroke="#000000" points="195.2949,-280.3701 202.2027,-288.4033 201.8122,-277.8157 195.2949,-280.3701"/>
</g>
<!-- O&#45;&gt;K -->
<g id="edge22" class="edge">
<title>O-&gt;K</title>
<path fill="none" stroke="#000000" d="M187.4792,-294.7604C182.7541,-292.4277 177.7445,-290.0562 173,-288 135.2381,-271.6345 90.7386,-255.6309 60.8799,-245.3497"/>
<polygon fill="#000000" stroke="#000000" points="61.9407,-242.0136 51.3461,-242.0902 59.6761,-248.6371 61.9407,-242.0136"/>
</g>
<!-- O&#45;&gt;Q -->
<g id="edge23" class="edge">
<title>O-&gt;Q</title>
<path fill="none" stroke="#000000" d="M205.9974,-287.9843C197.8823,-239.2939 175.466,-104.7961 165.6762,-46.0573"/>
<polygon fill="#000000" stroke="#000000" points="169.0979,-45.2974 164.0015,-36.0089 162.1932,-46.4482 169.0979,-45.2974"/>
</g>
<!-- S -->
<g id="node19" class="node">
<title>S</title>
<ellipse fill="none" stroke="#000000" cx="221" cy="-90" rx="27" ry="18"/>
<text text-anchor="middle" x="221" y="-85.8" font-family="Times,serif" font-size="14.00" fill="#000000">S</text>
</g>
<!-- O&#45;&gt;S -->
<g id="edge29" class="edge">
<title>O-&gt;S</title>
<path fill="none" stroke="#000000" d="M210.0025,-287.9555C212.0892,-250.3938 216.9137,-163.5541 219.4216,-118.4103"/>
<polygon fill="#000000" stroke="#000000" points="222.9318,-118.3238 219.9919,-108.1451 215.9425,-117.9355 222.9318,-118.3238"/>
</g>
<!-- P&#45;&gt;I -->
<g id="edge25" class="edge">
<title>P-&gt;I</title>
<path fill="none" stroke="#000000" d="M179.5196,-361.6621C172.4876,-352.4564 163.5653,-340.7764 155.7117,-330.4953"/>
<polygon fill="#000000" stroke="#000000" points="158.2828,-328.0953 149.431,-322.2733 152.72,-332.3446 158.2828,-328.0953"/>
</g>
<!-- P&#45;&gt;O -->
<g id="edge21" class="edge">
<title>P-&gt;O</title>
<path fill="none" stroke="#000000" d="M196.2022,-360.2022C198.0821,-352.2406 200.3425,-342.6671 202.4371,-333.7957"/>
<polygon fill="#000000" stroke="#000000" points="205.8955,-334.3792 204.7872,-323.8425 199.0828,-332.7706 205.8955,-334.3792"/>
</g>
<!-- R&#45;&gt;S -->
<g id="edge28" class="edge">
<title>R-&gt;S</title>
<path fill="none" stroke="#000000" d="M263.5196,-145.6621C256.4876,-136.4564 247.5653,-124.7764 239.7117,-114.4953"/>
<polygon fill="#000000" stroke="#000000" points="242.2828,-112.0953 233.431,-106.2733 236.72,-116.3446 242.2828,-112.0953"/>
</g>
<!-- U -->
<g id="node21" class="node">
<title>U</title>
<ellipse fill="none" stroke="#000000" cx="331" cy="-90" rx="27" ry="18"/>
<text text-anchor="middle" x="331" y="-85.8" font-family="Times,serif" font-size="14.00" fill="#000000">U</text>
</g>
<!-- R&#45;&gt;U -->
<g id="edge32" class="edge">
<title>R-&gt;U</title>
<path fill="none" stroke="#000000" d="M288.4804,-145.6621C295.5124,-136.4564 304.4347,-124.7764 312.2883,-114.4953"/>
<polygon fill="#000000" stroke="#000000" points="315.28,-116.3446 318.569,-106.2733 309.7172,-112.0953 315.28,-116.3446"/>
</g>
<!-- T -->
<g id="node20" class="node">
<title>T</title>
<ellipse fill="none" stroke="#000000" cx="261" cy="-18" rx="27" ry="18"/>
<text text-anchor="middle" x="261" y="-13.8" font-family="Times,serif" font-size="14.00" fill="#000000">T</text>
</g>
<!-- S&#45;&gt;T -->
<g id="edge30" class="edge">
<title>S-&gt;T</title>
<path fill="none" stroke="#000000" d="M230.4794,-72.937C235.3115,-64.2393 241.2889,-53.4799 246.6696,-43.7948"/>
<polygon fill="#000000" stroke="#000000" points="249.7917,-45.3819 251.5886,-34.9405 243.6726,-41.9823 249.7917,-45.3819"/>
</g>
<!-- T&#45;&gt;R -->
<g id="edge31" class="edge">
<title>T-&gt;R</title>
<path fill="none" stroke="#000000" d="M262.8843,-36.0896C265.4347,-60.5727 270.0122,-104.5174 273.0283,-133.4713"/>
<polygon fill="#000000" stroke="#000000" points="269.5829,-134.1788 274.1002,-143.7623 276.5453,-133.4535 269.5829,-134.1788"/>
</g>
<!-- V -->
<g id="node22" class="node">
<title>V</title>
<ellipse fill="none" stroke="#000000" cx="346" cy="-18" rx="27" ry="18"/>
<text text-anchor="middle" x="346" y="-13.8" font-family="Times,serif" font-size="14.00" fill="#000000">V</text>
</g>
<!-- U&#45;&gt;V -->
<g id="edge33" class="edge">
<title>U-&gt;V</title>
<path fill="none" stroke="#000000" d="M334.7851,-71.8314C336.432,-63.9266 338.3985,-54.4872 340.2216,-45.7365"/>
<polygon fill="#000000" stroke="#000000" points="343.6548,-46.4171 342.268,-35.9134 336.802,-44.9894 343.6548,-46.4171"/>
</g>
<!-- X -->
<g id="node24" class="node">
<title>X</title>
<ellipse fill="none" stroke="#000000" cx="319" cy="-234" rx="27" ry="18"/>
<text text-anchor="middle" x="319" y="-229.8" font-family="Times,serif" font-size="14.00" fill="#000000">X</text>
</g>
<!-- W&#45;&gt;X -->
<g id="edge35" class="edge">
<title>W-&gt;X</title>
<path fill="none" stroke="#000000" d="M319,-287.8314C319,-280.131 319,-270.9743 319,-262.4166"/>
<polygon fill="#000000" stroke="#000000" points="322.5001,-262.4132 319,-252.4133 315.5001,-262.4133 322.5001,-262.4132"/>
</g>
<!-- X&#45;&gt;R -->
<g id="edge37" class="edge">
<title>X-&gt;R</title>
<path fill="none" stroke="#000000" d="M308.8096,-216.937C303.6151,-208.2393 297.1894,-197.4799 291.4052,-187.7948"/>
<polygon fill="#000000" stroke="#000000" points="294.2496,-185.7314 286.1173,-178.9405 288.2398,-189.3206 294.2496,-185.7314"/>
</g>
<!-- X&#45;&gt;V -->
<g id="edge36" class="edge">
<title>X-&gt;V</title>
<path fill="none" stroke="#000000" d="M327.9483,-216.6471C339.6522,-192.8789 359.5435,-148.5187 367,-108 369.8958,-92.2642 369.9502,-87.7257 367,-72 365.2937,-62.9044 362.1016,-53.3722 358.712,-44.8918"/>
<polygon fill="#000000" stroke="#000000" points="361.8555,-43.3401 354.7195,-35.509 355.4144,-46.081 361.8555,-43.3401"/>
</g>
</g>
</svg>